<svg enable-background="new 0 0 352 348.7" viewBox="0 0 352 348.7" xmlns="http://www.w3.org/2000/svg"><path d="m0 28.7h352v24h-352z" fill="#970808"/><path d="m0 340.7h352v8h-352z" fill="#970808"/><g fill="#c0c0c0"><path d="m16 28.7h9.4v320h-9.4z"/><path d="m80 28.7h7.3v320h-7.3z"/><path d="m144 28.7h5.3v320h-5.3z"/><path d="m208 28.7h3.4v320h-3.4z"/><path d="m272 28.7h2.6v320h-2.6z"/><path d="m328 28.7h2v320h-2z"/></g><path d="m28 4.1h-10.3c-.1 0-.2.1-.2.2v4.9c0 .1.1.2.2.2h6.7c.4 0 .5.2.5.5v2.8c0 .4-.2.5-.5.5h-6.7c-.1 0-.2.1-.2.2v5.1c0 .1.1.2.2.2h10.3c.4 0 .5.2.5.5v2.8c0 .4-.2.5-.5.5h-14.5c-.4 0-.5-.2-.5-.5v-21.2c0-.4.2-.5.5-.5h14.5c.4 0 .5.2.5.5v2.8c0 .3-.2.5-.5.5z"/><path d="m88.7 22.2-.9-3c0-.1-.1-.2-.2-.2h-7.8c-.1 0-.2.1-.2.2l-.9 3c-.1.3-.3.4-.6.4h-3.7c-.2 0-.3-.1-.4-.2s-.1-.3 0-.4l6.8-21.3c.1-.3.3-.4.6-.4h4.7c.3 0 .5.1.6.4l6.8 21.3v.2c0 .1 0 .2-.1.3s-.2.1-.4.1h-3.7c-.2.1-.4-.1-.6-.4zm-7.8-6.6h5.7c.1 0 .2-.1.2-.2l-2.9-9.8c0-.1-.1-.1-.1-.1s-.1 0-.1.1l-2.8 9.8c-.2.1-.1.2 0 .2z"/><path d="m139 22.1v-21.3c0-.4.2-.5.5-.5h7.8c1.6 0 3 .3 4.2.8 1.2.6 2.1 1.4 2.8 2.4s1 2.2 1 3.6v8.8c0 1.3-.3 2.5-1 3.6-.7 1-1.6 1.8-2.8 2.4s-2.6.8-4.2.8h-7.8c-.4 0-.5-.2-.5-.6zm4.7-3.3h3.8c1 0 1.8-.3 2.4-1s.9-1.5.9-2.7v-7.3c0-1.1-.3-2-.9-2.7s-1.4-1-2.4-1h-3.8c-.1 0-.2.1-.2.2v14.3c0 .1 0 .2.2.2z"/><path d="m205.5 21.9c-1.3-.7-2.2-1.6-2.9-2.8s-1-2.6-1-4.1v-7.1c0-1.6.3-2.9 1-4.1s1.7-2.1 2.9-2.8c1.3-.7 2.7-1 4.4-1 1.6 0 3.1.3 4.3 1 1.2.6 2.2 1.5 2.9 2.6s1 2.3 1 3.7v.1c0 .4-.2.5-.5.5h-3.4c-.2 0-.3 0-.4-.1s-.1-.1-.1-.2v-.2c0-1-.3-1.8-1-2.5s-1.6-1-2.7-1c-1.2 0-2.1.4-2.8 1.1s-1 1.6-1 2.8v7.4c0 1.2.4 2.1 1.1 2.8s1.7 1.1 2.8 1.1 2-.3 2.7-.9 1-1.4 1-2.4v-1.4c0-.1-.1-.2-.2-.2h-3.6c-.4 0-.5-.2-.5-.5v-2.6c0-.4.2-.5.5-.5h7.5c.4 0 .5.2.5.5v3.9c0 1.6-.3 3-1 4.2s-1.6 2.1-2.9 2.7c-1.2.6-2.7.9-4.3.9s-3.1-.2-4.3-.9z"/><path d="m278.2 11.1c0 .1 0 .1.1.1 2 1 3 2.7 3 5.2 0 2.1-.7 3.6-2.1 4.7s-3.3 1.6-5.5 1.6h-8.1c-.4 0-.5-.2-.5-.5v-21.4c0-.4.2-.5.5-.5h7.9c5.1 0 7.6 2 7.6 6.1 0 2.2-.9 3.7-2.7 4.5-.2.1-.2.1-.2.2zm-8.7-6.8v4.9c0 .1.1.2.2.2h3.7c1 0 1.8-.2 2.3-.7.6-.5.8-1.1.8-1.9s-.3-1.5-.8-2c-.6-.5-1.3-.7-2.3-.7h-3.7c-.2 0-.2.1-.2.2zm6.4 13.7c.6-.5.8-1.2.8-2.1s-.3-1.6-.8-2.1c-.6-.5-1.3-.8-2.3-.8h-3.9c-.1 0-.2.1-.2.2v5.2c0 .1.1.2.2.2h4c.9.2 1.7-.1 2.2-.6z"/><path d="m332.8 17.6c.1-.1.3-.2.4-.2s.2.1.4.2l1.8 1.8c.1.1.2.3.2.4s0 .3-.1.4c-.7.9-1.6 1.6-2.7 2.1s-2.3.8-3.6.8c-2 0-3.6-.5-4.9-1.5s-2.2-2.4-2.6-4.1c-.3-.9-.4-1.9-.4-3 0-1.2.1-2.3.4-3.1.4-1.6 1.3-2.8 2.6-3.8s2.8-1.4 4.6-1.4c2.1 0 3.7.6 5 1.9 1.2 1.2 2 3 2.4 5.2.1.7.1 1.5.2 2.3 0 .4-.2.5-.5.5h-10c-.1 0-.2.1-.2.2.1.4.1.8.2 1 .2.7.6 1.2 1.3 1.5.6.4 1.4.5 2.3.5 1.4-.3 2.5-.8 3.2-1.7zm-5.7-7.3c-.5.3-.8.8-.9 1.4-.1.4-.2.7-.2.8s0 .2.2.2h5.4c.1 0 .2 0 .2-.1 0-.2 0-.5-.1-.7-.2-.6-.5-1.1-1-1.5s-1.1-.5-1.8-.5c-.8-.1-1.4.1-1.8.4z"/></svg>